# xmcd
#
# Track frame offsets:
#	150
#	16157
#	28132
#	44365
#	60817
#	71820
#	87102
#	98307
#	117002
#	134832
#	150907
#	165715
#	180032
#	195650
#	217125
#
# Disc length: 3046 seconds
#
# Revision: 0
# Processed by: cddbd v1.5.1PL0 Copyright (c) Steve Scherf et al.
# Submitted via: EasyCDDAExtractor 8.0.0.2
#
DISCID=b80be40f
DTITLE=Various Artist - Só Vanerão - Volume 4
DYEAR=1900
DGENRE=Gaúcha
TTITLE0=Tchê Garotos - Saracoteando
TTITLE1=Chão Sulino - Marca Quente
TTITLE2=Gurizada Medonha - Bailes de Pegá Cria
TTITLE3=Chiquito e Grupo Bordoneio - Vanerão do Pião
TTITLE4=Os Mateadores - Polvadeira
TTITLE5=Grupo Manotaço - Até Posso Casar
TTITLE6=Marinês Siqueira e Grupo Missões - Chapa de Fogão
TTITLE7=Grupo Minuano - Vamo Rapaziada
TTITLE8=Os Tiranos - Fandangueiro de Galpão
TTITLE9=Os Farrapos - Minha Gordinha
TTITLE10=Garotos do Fandango - Arrastando o Garrão
TTITLE11=Thê Barbaridade - Loira
TTITLE12=Tio Nanato - Vaneirão Cuiudo
TTITLE13=Luiz Carlos Borges - Fogo no Fole
TTITLE14=Os Caciques - Fandango dos Caciques
EXTD=
EXTT0=
EXTT1=
EXTT2=
EXTT3=
EXTT4=
EXTT5=
EXTT6=
EXTT7=
EXTT8=
EXTT9=
EXTT10=
EXTT11=
EXTT12=
EXTT13=
EXTT14=
PLAYORDER=
